<?xml version="1.0" encoding="iso-8859-1"?>
<!-- Generator: Adobe Illustrator 19.0.0, SVG Export Plug-In . SVG Version: 6.00 Build 0)  -->
<svg version="1.1" id="Capa_1" xmlns="http://www.w3.org/2000/svg" xmlns:xlink="http://www.w3.org/1999/xlink" x="0px" y="0px"
	 viewBox="0 0 511.75 511.75" style="enable-background:new 0 0 511.75 511.75;" xml:space="preserve">
<g>
	<g>
		<path d="M86.257,493.521c-1.563-1.562-4.093-1.562-5.655,0l-11.403,11.403c-1.562,1.561-1.562,4.092,0,5.654
			c0.782,0.781,1.805,1.172,2.828,1.172c1.023,0,2.046-0.391,2.827-1.172l11.403-11.402
			C87.819,497.614,87.819,495.083,86.257,493.521z"/>
	</g>
</g>
<g>
	<g>
		<path d="M75.151,505.253l-45.24-56.553c-1.382-1.71-3.897-1.999-5.623-0.625c-1.723,1.383-2.003,3.897-0.625,5.624l45.24,56.552
			c0.793,0.984,1.953,1.5,3.128,1.5c0.874,0,1.757-0.289,2.495-0.875C76.248,509.493,76.529,506.979,75.151,505.253z"/>
	</g>
</g>
<g>
	<g>
		<path d="M97.475,380.51c-1.561-1.562-4.092-1.562-5.654,0L23.96,448.371c-1.562,1.561-1.562,4.092,0,5.654
			c0.781,0.781,1.804,1.172,2.827,1.172c1.024,0,2.046-0.39,2.827-1.172l67.861-67.861C99.037,384.603,99.037,382.073,97.475,380.51
			z"/>
	</g>
</g>
<g>
	<g>
		<path d="M158.824,362.89c-1.93-1.078-4.362-0.398-5.452,1.515L79.946,494.38c-1.086,1.922-0.406,4.366,1.515,5.451
			c0.621,0.352,1.297,0.516,1.965,0.516c1.393,0,2.749-0.735,3.487-2.031l73.426-129.975
			C161.425,366.42,160.745,363.975,158.824,362.89z"/>
	</g>
</g>
<g>
	<g>
		<path d="M135.311,339.78c-2.12-0.726-4.361,0.438-5.049,2.546c-2.906,8.794-13.043,32.725-24.949,37.715
			c-3.011,1.273-5.921,1.172-8.9-0.289c-1.976-0.968-4.374-0.164-5.354,1.82c-0.972,1.984-0.16,4.373,1.824,5.35
			c2.726,1.343,5.491,2.015,8.271,2.015c2.409,0,4.835-0.508,7.252-1.515c17.67-7.42,28.974-41.159,29.447-42.597
			C138.548,342.732,137.408,340.468,135.311,339.78z"/>
	</g>
</g>
<g>
	<g>
		<path d="M165.337,357.892l-22.622-22.617c-1.562-1.562-4.092-1.562-5.654,0c-1.562,1.561-1.562,4.092,0,5.654l22.622,22.617
			c0.781,0.781,1.804,1.172,2.827,1.172s2.046-0.391,2.827-1.172C166.899,361.985,166.899,359.454,165.337,357.892z"/>
	</g>
</g>
<g>
	<g>
		<path d="M146.331,305.901c-2.156-0.468-4.276,0.969-4.706,3.14l-5.658,28.28c-0.433,2.163,0.972,4.272,3.136,4.702
			c0.266,0.054,0.527,0.077,0.789,0.077c1.867,0,3.538-1.312,3.916-3.218l5.659-28.279
			C149.9,308.439,148.495,306.331,146.331,305.901z"/>
	</g>
</g>
<g>
	<g>
		<path d="M250.158,205.209c-1.562-1.562-4.092-1.562-5.654,0L142.719,306.995c-1.562,1.561-1.562,4.092,0,5.654
			c0.781,0.78,1.805,1.171,2.828,1.171c1.022,0,2.046-0.39,2.827-1.171l101.784-101.784
			C251.72,209.302,251.72,206.771,250.158,205.209z"/>
	</g>
</g>
<g>
	<g>
		<path d="M289.755,233.481c-1.561-1.562-4.092-1.562-5.654,0L159.683,357.892c-1.562,1.562-1.562,4.092,0,5.654
			c0.781,0.781,1.804,1.172,2.827,1.172s2.046-0.391,2.827-1.172l124.418-124.41C291.317,237.574,291.317,235.043,289.755,233.481z"
			/>
	</g>
</g>
<g>
	<g>
		<path d="M295.41,227.82l-28.289-28.257c-1.561-1.562-4.088-1.562-5.65,0c-1.562,1.563-1.562,4.093,0,5.655l28.284,28.256
			c0.781,0.781,1.797,1.172,2.827,1.172c1.016,0,2.047-0.391,2.828-1.172C296.972,231.912,296.972,229.381,295.41,227.82z"/>
	</g>
</g>
<g>
	<g>
		<path d="M346.3,120.383c-1.561-1.562-4.092-1.562-5.654,0l-84.829,84.833c-1.562,1.562-1.562,4.093,0,5.655
			c0.781,0.781,1.805,1.171,2.827,1.171c1.023,0,2.045-0.39,2.827-1.172l84.829-84.833
			C347.862,124.475,347.862,121.945,346.3,120.383z"/>
	</g>
</g>
<g>
	<g>
		<path d="M334.991,109.076c-1.562-1.562-4.093-1.562-5.655,0l-50.89,50.89c-1.562,1.562-1.562,4.092,0,5.654
			c0.78,0.781,1.796,1.172,2.827,1.172c1.016,0,2.046-0.391,2.827-1.172l50.891-50.89
			C336.553,113.169,336.553,110.638,334.991,109.076z"/>
	</g>
</g>
<g>
	<g>
		<path d="M363.28,143.009l-50.891,50.914c-7.03,7.029-11.942,15.98-15.886,23.173c-2.476,4.522-4.811,8.786-6.748,10.723
			c-1.562,1.562-1.562,4.092,0,5.654c0.781,0.781,1.797,1.172,2.827,1.172c1.016,0,2.047-0.391,2.829-1.172
			c2.74-2.749,5.232-7.279,8.106-12.535c3.889-7.091,8.301-15.136,14.526-21.361l50.891-50.913L363.28,143.009z"/>
	</g>
</g>
<g>
	<g>
		<path d="M255.812,199.555l-11.309-11.309c-1.562-1.562-4.092-1.562-5.654,0s-1.562,4.092,0,5.654l11.309,11.309
			c0.781,0.78,1.804,1.171,2.827,1.171c1.024,0,2.047-0.39,2.827-1.17C257.374,203.648,257.374,201.117,255.812,199.555z"/>
	</g>
</g>
<g>
	<g>
		<path d="M278.438,165.628c-1.562-1.562-4.092-1.562-5.654,0l-28.28,28.272c-1.562,1.562-1.562,4.092,0,5.654
			c0.781,0.781,1.804,1.172,2.827,1.172s2.046-0.391,2.827-1.171l28.28-28.272C280,169.721,280,167.19,278.438,165.628z"/>
	</g>
</g>
<g>
	<g>
		<path d="M284.085,171.276l-5.646-5.647c-1.562-1.562-4.092-1.562-5.654,0c-1.562,1.563-1.562,4.093,0,5.655l5.646,5.646
			c0.78,0.78,1.811,1.171,2.827,1.171c1.031,0,2.046-0.391,2.827-1.171C285.647,175.367,285.647,172.837,284.085,171.276z"/>
	</g>
</g>
<g>
	<g>
		<path d="M368.933,143.009l-22.634-22.625c-1.561-1.562-4.092-1.562-5.654,0c-1.562,1.561-1.562,4.092,0,5.654l22.634,22.626
			c0.78,0.781,1.804,1.171,2.826,1.171c1.024,0,2.047-0.39,2.828-1.171C370.495,147.102,370.495,144.571,368.933,143.009z"/>
	</g>
</g>
<g>
	<g>
		<path d="M340.645,114.73l-5.654-5.654c-1.562-1.562-4.093-1.562-5.655,0s-1.562,4.092,0,5.654l5.655,5.655
			c0.78,0.78,1.796,1.171,2.827,1.171c1.016,0,2.046-0.391,2.827-1.171C342.207,118.823,342.207,116.292,340.645,114.73z"/>
	</g>
</g>
<g>
	<g>
		<path d="M216.227,329.62l-11.305-11.317c-1.562-1.562-4.092-1.561-5.654,0c-1.562,1.561-1.562,4.092,0,5.654l11.305,11.317
			c0.781,0.78,1.804,1.171,2.827,1.171s2.046-0.39,2.827-1.171C217.789,333.713,217.789,331.182,216.227,329.62z"/>
	</g>
</g>
<g>
	<g>
		<path d="M239.665,398.644l-28.28-62.199c-0.905-2.006-3.268-2.897-5.295-1.983c-2.01,0.914-2.897,3.288-1.983,5.295l28.28,62.199
			c0.667,1.477,2.12,2.343,3.643,2.343c0.55,0,1.113-0.117,1.652-0.359C239.692,403.026,240.579,400.651,239.665,398.644z"/>
	</g>
</g>
<g>
	<g>
		<path d="M239.603,398.512c-0.992-1.968-3.39-2.78-5.366-1.788l-22.625,11.316c-1.977,0.992-2.777,3.389-1.789,5.365
			c0.703,1.399,2.112,2.211,3.581,2.211c0.602,0,1.211-0.133,1.784-0.422l22.626-11.316
			C239.79,402.886,240.591,400.488,239.603,398.512z"/>
	</g>
</g>
<g>
	<g>
		<path d="M216.977,409.829l-22.618-45.244c-0.984-1.968-3.393-2.788-5.365-1.788c-1.977,0.983-2.777,3.389-1.789,5.365
			l22.618,45.243c0.699,1.399,2.112,2.211,3.581,2.211c0.602,0,1.211-0.133,1.784-0.422
			C217.164,414.21,217.964,411.805,216.977,409.829z"/>
	</g>
</g>
<g>
	<g>
		<path d="M192.049,362.578l-16.964-5.655c-2.105-0.702-4.358,0.445-5.057,2.531c-0.7,2.093,0.433,4.358,2.526,5.061l16.963,5.654
			c0.422,0.141,0.847,0.203,1.265,0.203c1.676,0,3.234-1.062,3.793-2.733C195.275,365.546,194.142,363.28,192.049,362.578z"/>
	</g>
</g>
<g>
	<g>
		<path d="M360.146,270.028c-1.256-1.811-3.756-2.249-5.568-0.991c-25.414,17.745-59.809,14.691-81.802-7.275
			c-1.562-1.562-4.093-1.562-5.655,0s-1.562,4.089,0,5.651c13.98,13.964,32.396,21.133,50.945,21.133
			c14.286,0,28.656-4.256,41.089-12.949C360.966,274.332,361.412,271.84,360.146,270.028z"/>
	</g>
</g>
<g>
	<g>
		<path d="M369.614,302.199c-1.063-1.929-3.5-2.639-5.429-1.577c-37.114,20.407-83.974,13.698-113.968-16.3
			c-1.562-1.562-4.092-1.562-5.654,0c-1.562,1.562-1.562,4.092,0,5.654c19.926,19.931,46.723,30.365,73.738,30.365
			c17.049,0,34.184-4.154,49.735-12.706C369.972,306.565,370.683,304.137,369.614,302.199z"/>
	</g>
</g>
<g>
	<g>
		<path d="M350.049,294.287c-0.742-2.085-3.03-3.187-5.107-2.421c-26.445,9.418-56.256,4.201-77.828-13.66
			c-1.702-1.407-4.217-1.165-5.631,0.523c-1.406,1.702-1.171,4.225,0.531,5.631c15.917,13.183,35.925,20.119,56.154,20.119
			c9.919,0,19.893-1.671,29.459-5.085C349.705,298.652,350.799,296.364,350.049,294.287z"/>
	</g>
</g>
<g>
	<g>
		<path d="M369.917,303.034l-9.201-31.826c-0.617-2.116-2.827-3.35-4.951-2.733c-2.124,0.617-3.35,2.835-2.733,4.952l9.2,31.825
			c0.5,1.75,2.101,2.89,3.843,2.89c0.359,0,0.734-0.047,1.108-0.157C369.308,307.368,370.525,305.15,369.917,303.034z"/>
	</g>
</g>
<g>
	<g>
		<path d="M267.129,188.238l-5.65-5.654c-1.561-1.562-4.092-1.562-5.654,0c-1.562,1.561-1.562,4.092,0,5.654l5.65,5.654
			c0.781,0.781,1.805,1.172,2.828,1.172c1.022,0,2.046-0.391,2.826-1.172C268.691,192.33,268.691,189.8,267.129,188.238z"/>
	</g>
</g>
<g>
	<g>
		<path d="M244.515,301.348l-11.317-11.316c-1.562-1.562-4.093-1.562-5.655,0c-1.562,1.562-1.562,4.092,0,5.654l11.317,11.317
			c0.781,0.78,1.805,1.171,2.828,1.171c1.023,0,2.046-0.391,2.827-1.171C246.077,305.44,246.077,302.91,244.515,301.348z"/>
	</g>
</g>
<g>
	<g>
		<path d="M244.519,301.347c-1.563-1.562-4.097-1.562-5.659,0c-1.562,1.562-1.562,4.093-0.004,5.655
			c1.562,1.561,1.562,4.1,0.004,5.662c-1.558,1.569-1.558,4.1,0.008,5.654c0.781,0.781,1.801,1.172,2.824,1.172
			s2.05-0.39,2.831-1.171C249.189,313.633,249.189,306.026,244.519,301.347z"/>
	</g>
</g>
<g>
	<g>
		<path d="M244.52,312.664c-1.563-1.562-4.093-1.562-5.655,0l-16.967,16.963c-1.562,1.562-1.562,4.093,0,5.655
			c0.781,0.78,1.804,1.171,2.827,1.171c1.023,0,2.046-0.39,2.827-1.171l16.968-16.964
			C246.082,316.757,246.082,314.227,244.52,312.664z"/>
	</g>
</g>
<g>
	<g>
		<path d="M227.555,329.62c-1.561-1.562-4.096-1.562-5.658,0c-1.562,1.569-4.112,1.554-5.674,0c-1.562-1.562-4.092-1.562-5.654,0
			c-1.558,1.569-1.558,4.099,0.008,5.654c2.343,2.343,5.416,3.506,8.493,3.506c3.074,0,6.151-1.163,8.489-3.506
			C229.117,333.712,229.117,331.182,227.555,329.62z"/>
	</g>
</g>
<g>
	<g>
		<path d="M244.507,233.482c-1.562-1.562-4.092-1.562-5.654,0l-33.931,33.932c-1.562,1.561-1.562,4.092,0,5.654
			c0.781,0.78,1.805,1.171,2.828,1.171c1.022,0,2.046-0.39,2.826-1.17l33.931-33.932
			C246.069,237.575,246.069,235.044,244.507,233.482z"/>
	</g>
</g>
<g>
	<g>
		<path d="M250.166,239.143l-5.654-5.663c-1.562-1.562-4.096-1.562-5.658,0c-1.563,1.563-1.563,4.093-0.004,5.655l5.654,5.663
			c0.781,0.781,1.808,1.171,2.831,1.171s2.046-0.39,2.827-1.171C251.724,243.235,251.724,240.705,250.166,239.143z"/>
	</g>
</g>
<g>
	<g>
		<path d="M182.3,295.685c-1.562-1.562-4.092-1.562-5.654,0l-22.618,22.618c-1.562,1.561-1.562,4.092,0,5.654
			c0.781,0.781,1.804,1.172,2.827,1.172c1.024,0,2.047-0.391,2.827-1.172l22.618-22.618
			C183.862,299.778,183.862,297.247,182.3,295.685z"/>
	</g>
</g>
<g>
	<g>
		<path d="M233.198,312.649c-1.562-1.562-4.093-1.562-5.655,0c-0.761,0.757-1.765,1.179-2.831,1.179h-0.004
			c-1.062,0-2.061-0.422-2.815-1.171c-1.562-1.571-4.092-1.571-5.654-0.016c-1.562,1.561-1.57,4.092-0.008,5.654
			c2.261,2.272,5.268,3.522,8.47,3.53c0.004,0,0.008,0,0.012,0c3.202,0,6.217-1.25,8.485-3.522
			C234.76,316.742,234.76,314.211,233.198,312.649z"/>
	</g>
</g>
<g>
	<g>
		<path d="M471.167,6.826c-1.562-1.562-4.093-1.562-5.655,0L351.978,120.37c-1.562,1.561-1.562,4.092,0,5.654
			c0.781,0.781,1.804,1.171,2.827,1.171s2.047-0.39,2.827-1.171L471.167,12.48C472.729,10.919,472.729,8.388,471.167,6.826z"/>
	</g>
</g>
<g>
	<g>
		<path d="M487.787,12.832c-1.562-1.562-4.093-1.562-5.655,0L362.936,132.029c-1.562,1.562-1.562,4.092,0,5.654
			c0.781,0.781,1.796,1.172,2.827,1.172c1.014,0,2.046-0.391,2.827-1.172L487.787,18.487
			C489.349,16.924,489.349,14.394,487.787,12.832z"/>
	</g>
</g>
<g>
	<g>
		<path d="M486.319,11.896l-16.62-6.006c-2.077-0.719-4.357,0.335-5.115,2.405c-0.75,2.077,0.32,4.366,2.397,5.123l16.62,6.006
			c0.452,0.156,0.905,0.234,1.358,0.234c1.641,0,3.171-1.015,3.765-2.639C489.474,14.943,488.396,12.654,486.319,11.896z"/>
	</g>
</g>
<g>
	<g>
		<path d="M465.512,12.48L454.203,1.172c-1.561-1.562-4.092-1.562-5.654,0c-1.562,1.563-1.562,4.093,0,5.655l11.309,11.309
			c0.781,0.781,1.812,1.171,2.828,1.171c1.03,0,2.045-0.39,2.826-1.171C467.074,16.573,467.074,14.042,465.512,12.48z"/>
	</g>
</g>
<g>
	<g>
		<path d="M385.991,69.384c-1.561-1.562-4.092-1.562-5.654,0l-40.019,40.019c-1.562,1.563-1.562,4.093,0,5.655
			c0.781,0.78,1.796,1.171,2.827,1.171c1.015,0,2.045-0.391,2.827-1.171l40.019-40.019
			C387.553,73.477,387.553,70.946,385.991,69.384z"/>
	</g>
</g>
<g>
	<g>
		<path d="M405.789,68.212h-22.626c-2.202,0-3.999,1.789-3.999,3.999s1.797,3.999,3.999,3.999h22.626
			c2.21,0,3.998-1.788,3.998-3.999C409.787,70.001,407.999,68.212,405.789,68.212z"/>
	</g>
</g>
<g>
</g>
<g>
</g>
<g>
</g>
<g>
</g>
<g>
</g>
<g>
</g>
<g>
</g>
<g>
</g>
<g>
</g>
<g>
</g>
<g>
</g>
<g>
</g>
<g>
</g>
<g>
</g>
<g>
</g>
</svg>
