<?xml version="1.0" standalone="no"?>
<!DOCTYPE svg PUBLIC "-//W3C//DTD SVG 20010904//EN"
 "http://www.w3.org/TR/2001/REC-SVG-20010904/DTD/svg10.dtd">
<svg version="1.0" xmlns="http://www.w3.org/2000/svg"
 width="577.000000pt" height="477.000000pt" viewBox="0 0 577.000000 477.000000"
 preserveAspectRatio="xMidYMid meet">
<metadata>
Created by potrace 1.16, written by Peter Selinger 2001-2019
</metadata>
<g transform="translate(0.000000,477.000000) scale(0.100000,-0.100000)"
fill="#000000" stroke="none">
<path d="M2110 4744 c-297 -64 -524 -292 -584 -586 -9 -42 -16 -93 -16 -113
l0 -35 -700 0 c-774 0 -740 3 -780 -63 -20 -31 -20 -65 -20 -1942 0 -1877 0
-1911 20 -1942 41 -69 -214 -63 2860 -63 3074 0 2819 -6 2860 63 20 31 20 65
20 1940 0 2108 5 1946 -63 1987 -31 19 -55 20 -733 20 l-701 0 -7 68 c-34 331
-274 599 -598 666 -67 14 -174 16 -785 15 -567 0 -721 -3 -773 -15z m1502
-255 c204 -43 366 -218 394 -427 l7 -52 -1123 0 -1123 0 7 52 c27 204 181 376
379 424 70 17 1380 19 1459 3z m1898 -2484 l0 -1745 -2620 0 -2620 0 0 1745 0
1745 2620 0 2620 0 0 -1745z"/>
<path d="M2323 3240 c-62 -37 -63 -45 -63 -405 l0 -325 -327 0 c-308 0 -330
-1 -360 -20 -65 -39 -63 -24 -63 -610 0 -586 -2 -571 63 -610 30 -19 52 -20
360 -20 l327 0 0 -327 c0 -308 1 -330 20 -360 39 -65 24 -63 612 -63 511 0
534 1 565 20 62 37 63 45 63 405 l0 325 328 0 c307 0 329 1 359 20 65 39 63
24 63 612 0 511 -1 534 -20 565 -37 62 -45 63 -405 63 l-325 0 0 325 c0 360
-1 368 -63 405 -31 19 -54 20 -567 20 -513 0 -536 -1 -567 -20z m937 -565 c0
-360 1 -368 63 -405 30 -19 52 -20 360 -20 l327 0 0 -370 0 -370 -325 0 c-360
0 -368 -1 -405 -63 -19 -30 -20 -52 -20 -359 l0 -328 -370 0 -370 0 0 328 c0
307 -1 329 -20 359 -37 62 -45 63 -405 63 l-325 0 0 370 0 370 325 0 c360 0
368 1 405 63 19 30 20 52 20 360 l0 327 370 0 370 0 0 -325z"/>
</g>
</svg>
