<svg width="204.124" height="269.124" xmlns="http://www.w3.org/2000/svg">

 <g>
  <title>background</title>
  <rect fill="none" id="canvas_background" height="271.124" width="206.124" y="-1" x="-1"/>
 </g>
 <g>
  <title>Layer 1</title>
  <g id="svg_1">
   <path id="svg_2" d="m170.599,7.178c-18.513,-4.629 -43.028,-7.178 -69.03,-7.178c-26.002,0 -50.518,2.549 -69.031,7.178c-21.591,5.398 -32.538,13.041 -32.538,22.717l0,207.035c0,9.675 10.947,17.317 32.538,22.713c18.512,4.627 43.028,7.175 69.031,7.175c26.003,0 50.518,-2.548 69.028,-7.175c21.589,-5.396 32.535,-13.038 32.535,-22.713l0,-207.035c0.001,-9.676 -10.945,-17.319 -32.533,-22.717zm20.534,129.178c0,2.155 -9.659,9.435 -38.523,14.123c-2.813,-25.679 -24.625,-45.728 -51.04,-45.728c-26.416,0 -48.23,20.049 -51.043,45.728c-28.867,-4.688 -38.527,-11.967 -38.527,-14.123l0,-91.163c5.184,2.81 12.031,5.287 20.538,7.413c18.514,4.628 43.03,7.176 69.032,7.176c26.002,0 50.517,-2.549 69.028,-7.176c8.506,-2.126 15.352,-4.603 20.535,-7.413l0,91.163zm-128.921,19.749c0,-21.7 17.656,-39.354 39.357,-39.354c21.7,0 39.354,17.654 39.354,39.354s-17.654,39.355 -39.354,39.355c-21.701,0 -39.357,-17.654 -39.357,-39.355zm-26.764,-137.285c17.59,-4.398 41.072,-6.82 66.121,-6.82c25.049,0 48.53,2.422 66.118,6.82c19.273,4.819 23.445,10.041 23.445,11.075c0,1.034 -4.172,6.252 -23.445,11.071c-17.588,4.396 -41.069,6.818 -66.118,6.818c-25.05,0 -48.532,-2.421 -66.122,-6.818c-19.275,-4.819 -23.447,-10.038 -23.447,-11.071c0,-1.035 4.172,-6.256 23.448,-11.075zm132.24,229.181c-17.586,4.396 -41.067,6.817 -66.118,6.817s-48.533,-2.421 -66.122,-6.817c-19.276,-4.817 -23.448,-10.037 -23.448,-11.071l0,-85.23c9.956,5.41 24.685,8.818 38.643,10.951c3.227,25.235 24.826,44.809 50.926,44.809c26.099,0 47.696,-19.574 50.923,-44.809c13.957,-2.133 28.686,-5.541 38.641,-10.951l0,85.229c0,1.035 -4.172,6.255 -23.445,11.072z"/>
   <path id="svg_3" d="m58.214,40.053c11.613,1.548 27.011,2.401 43.355,2.401c16.348,0 31.746,-0.853 43.359,-2.401c15.759,-2.101 21.618,-4.855 21.618,-10.162c0,-5.308 -5.859,-8.063 -21.618,-10.164c-11.612,-1.549 -27.011,-2.401 -43.359,-2.401c-16.346,0 -31.743,0.852 -43.355,2.401c-15.76,2.101 -21.619,4.856 -21.619,10.164c0,5.307 5.859,8.061 21.619,10.162zm43.355,-13.727c24.183,0 40.893,1.795 49.741,3.564c-8.85,1.769 -25.56,3.564 -49.741,3.564c-24.178,0 -40.889,-1.795 -49.738,-3.564c8.849,-1.768 25.557,-3.564 49.738,-3.564z"/>
  </g>
  <g id="svg_4"/>
  <g id="svg_5"/>
  <g id="svg_6"/>
  <g id="svg_7"/>
  <g id="svg_8"/>
  <g id="svg_9"/>
  <g id="svg_10"/>
  <g id="svg_11"/>
  <g id="svg_12"/>
  <g id="svg_13"/>
  <g id="svg_14"/>
  <g id="svg_15"/>
  <g id="svg_16"/>
  <g id="svg_17"/>
  <g id="svg_18"/>
 </g>
</svg>