<?xml version="1.0" encoding="iso-8859-1"?>
<!-- Generator: Adobe Illustrator 19.0.0, SVG Export Plug-In . SVG Version: 6.00 Build 0)  -->
<svg version="1.1" id="Layer_1" xmlns="http://www.w3.org/2000/svg" xmlns:xlink="http://www.w3.org/1999/xlink" x="0px" y="0px"
	 viewBox="0 0 512 512" style="enable-background:new 0 0 512 512;" xml:space="preserve">
<g>
	<g>
		<path d="M358.079,149.289c0-10.352-3.787-20.314-10.665-28.051l-55.449-62.38c-1.48-1.665-2.295-3.808-2.295-6.036V48.16
			c5.093-2.829,8.551-8.26,8.551-14.489V16.569C298.221,7.432,290.789,0,281.653,0h-51.307c-9.136,0-16.568,7.432-16.568,16.568
			V33.67c0,6.228,3.458,11.659,8.551,14.489v4.663c0,2.228-0.816,4.371-2.295,6.036l-55.449,62.381
			c-6.877,7.737-10.665,17.699-10.665,28.051v46.853c0,6.603,2.564,12.614,6.745,17.102c-4.18,4.488-6.745,10.5-6.745,17.102v8.551
			c0,6.603,2.564,12.614,6.745,17.102c-4.18,4.488-6.745,10.5-6.745,17.102v8.551c0,6.603,2.564,12.614,6.745,17.102
			c-4.18,4.488-6.745,10.5-6.745,17.102v8.551c0,6.603,2.564,12.614,6.745,17.102c-4.18,4.488-6.745,10.5-6.745,17.102v8.551
			c0,6.603,2.564,12.614,6.745,17.102c-4.18,4.488-6.745,10.5-6.745,17.102v8.551c0,6.603,2.564,12.614,6.745,17.102
			c-4.18,4.488-6.745,10.5-6.745,17.102v25.653c0,23.281,18.941,42.221,42.221,42.221h119.716c23.281,0,42.221-18.941,42.221-42.221
			v-25.653c0-6.603-2.564-12.614-6.745-17.102c4.18-4.488,6.745-10.5,6.745-17.102v-8.551c0-6.603-2.564-12.614-6.745-17.102
			c4.18-4.488,6.745-10.5,6.745-17.102v-8.551c0-6.603-2.564-12.614-6.745-17.102c4.18-4.488,6.745-10.5,6.745-17.102v-8.551
			c0-6.603-2.564-12.614-6.745-17.102c4.18-4.488,6.745-10.5,6.745-17.102v-8.551c0-6.603-2.564-12.614-6.745-17.102
			c4.18-4.488,6.745-10.5,6.745-17.102v-8.551c0-6.603-2.564-12.614-6.745-17.102c4.18-4.488,6.745-10.5,6.745-17.102V149.289z
			 M229.812,16.568c0-0.295,0.239-0.534,0.534-0.534h51.307c0.295,0,0.534,0.239,0.534,0.534V33.67c0,0.295-0.239,0.534-0.534,0.534
			h-51.307c-0.295,0-0.534-0.239-0.534-0.534V16.568z M176.568,131.891l55.45-62.381c4.092-4.604,6.345-10.53,6.345-16.688v-2.585
			h35.273v2.584c0,6.158,2.253,12.085,6.345,16.689l55.449,62.381c1.346,1.514,2.476,3.176,3.427,4.928H173.143
			C174.093,135.066,175.224,133.403,176.568,131.891z M342.046,469.779c0,14.44-11.748,26.188-26.188,26.188H196.142
			c-14.44,0-26.188-11.748-26.188-26.188v-25.653c0-5.01,4.076-9.086,9.086-9.086H332.96c5.01,0,9.086,4.076,9.086,9.086V469.779z
			 M342.046,409.921c0,5.01-4.076,9.086-9.086,9.086H179.04c-5.01,0-9.086-4.076-9.086-9.086v-8.551c0-5.01,4.076-9.086,9.086-9.086
			H332.96c5.01,0,9.086,4.076,9.086,9.086V409.921z M342.046,367.165c0,5.01-4.076,9.086-9.086,9.086H179.04
			c-5.01,0-9.086-4.076-9.086-9.086v-8.551c0-5.01,4.076-9.086,9.086-9.086H332.96c5.01,0,9.086,4.076,9.086,9.086V367.165z
			 M342.046,324.409c0,5.01-4.076,9.086-9.086,9.086H179.04c-5.01,0-9.086-4.076-9.086-9.086v-8.551c0-5.01,4.076-9.086,9.086-9.086
			H332.96c5.01,0,9.086,4.076,9.086,9.086V324.409z M342.046,281.653c0,5.01-4.076,9.086-9.086,9.086H179.04
			c-5.01,0-9.086-4.076-9.086-9.086v-8.551c0-5.01,4.076-9.086,9.086-9.086H332.96c5.01,0,9.086,4.076,9.086,9.086V281.653z
			 M342.046,238.898c0,5.01-4.076,9.086-9.086,9.086H179.04c-5.01,0-9.086-4.076-9.086-9.086v-8.551c0-5.01,4.076-9.086,9.086-9.086
			H332.96c5.01,0,9.086,4.076,9.086,9.086V238.898z M342.046,196.142c0,5.01-4.076,9.086-9.086,9.086H179.04
			c-5.01,0-9.086-4.076-9.086-9.086v-43.29h172.092V196.142z"/>
	</g>
</g>
<g>
</g>
<g>
</g>
<g>
</g>
<g>
</g>
<g>
</g>
<g>
</g>
<g>
</g>
<g>
</g>
<g>
</g>
<g>
</g>
<g>
</g>
<g>
</g>
<g>
</g>
<g>
</g>
<g>
</g>
</svg>
