<?xml version="1.0"?>
<svg xmlns="http://www.w3.org/2000/svg" id="Layer_1" data-name="Layer 1" viewBox="0 0 128 128" width="512" height="512"><title>MINERAL WATER</title><path d="M75.692,42.565l-2.449-1.3a3.662,3.662,0,0,1-1.951-3.243V37.017h.966a1.25,1.25,0,0,0,1.25-1.25V27.75a2.86,2.86,0,0,0-2.857-2.856h-13.3a2.86,2.86,0,0,0-2.857,2.856v8.017a1.25,1.25,0,0,0,1.25,1.25h.966v1.007a3.662,3.662,0,0,1-1.951,3.243l-2.448,1.3a6.95,6.95,0,0,0-3.7,6.153V65.663A5.925,5.925,0,0,0,50.9,70.346a5.928,5.928,0,0,0-2.294,4.684V97.841a5.272,5.272,0,0,0,5.266,5.266H74.128a5.272,5.272,0,0,0,5.266-5.266V75.029A5.928,5.928,0,0,0,77.1,70.346a5.925,5.925,0,0,0,2.294-4.683V48.719A6.95,6.95,0,0,0,75.692,42.565ZM51.106,51.16H76.894V62.625H51.106Zm5.886-23.41a.357.357,0,0,1,.357-.356h13.3a.357.357,0,0,1,.357.356v6.767H56.992ZM53.48,44.774l2.449-1.3a6.159,6.159,0,0,0,3.279-5.452V37.017h9.585v1.007a6.159,6.159,0,0,0,3.279,5.452l2.449,1.3A4.452,4.452,0,0,1,76.89,48.66H51.11A4.451,4.451,0,0,1,53.48,44.774ZM73.461,71.6a3.437,3.437,0,0,1,3.433,3.434V97.841a2.768,2.768,0,0,1-2.766,2.766H53.872a2.769,2.769,0,0,1-2.766-2.766V75.029A3.437,3.437,0,0,1,54.539,71.6a1.25,1.25,0,0,0,0-2.5,3.437,3.437,0,0,1-3.433-3.433v-.538H76.894v.538A3.437,3.437,0,0,1,73.461,69.1a1.25,1.25,0,0,0,0,2.5Z"/></svg>
